<?xml version="1.0" encoding="UTF-8" standalone="no"?>
<!DOCTYPE svg PUBLIC "-//W3C//DTD SVG 1.1//EN"
 "http://www.w3.org/Graphics/SVG/1.1/DTD/svg11.dtd">
<!-- Generated by graphviz version 2.38.0 (20140413.2041)
 -->
<!-- Title: snakemake_dag Pages: 1 -->
<svg width="299pt" height="116pt"
 viewBox="0.00 0.00 299.00 116.00" xmlns="http://www.w3.org/2000/svg" xmlns:xlink="http://www.w3.org/1999/xlink">
<g id="graph0" class="graph" transform="scale(1 1) rotate(0) translate(4 112)">
<title>snakemake_dag</title>
<polygon fill="white" stroke="none" points="-4,4 -4,-112 295,-112 295,4 -4,4"/>
<!-- 0 -->
<g id="node1" class="node"><title>0</title>
<path fill="none" stroke="#59d856" stroke-width="2" stroke-dasharray="5,2" d="M63,-108C63,-108 22,-108 22,-108 16,-108 10,-102 10,-96 10,-96 10,-84 10,-84 10,-78 16,-72 22,-72 22,-72 63,-72 63,-72 69,-72 75,-78 75,-84 75,-84 75,-96 75,-96 75,-102 69,-108 63,-108"/>
<text text-anchor="middle" x="42.5" y="-93" font-family="sans" font-size="10.00">bwa_map</text>
<text text-anchor="middle" x="42.5" y="-82" font-family="sans" font-size="10.00">sample: C</text>
</g>
<!-- 3 -->
<g id="node4" class="node"><title>3</title>
<path fill="none" stroke="#d85656" stroke-width="2" stroke-dasharray="5,2" d="M73,-36C73,-36 12,-36 12,-36 6,-36 0,-30 0,-24 0,-24 0,-12 0,-12 0,-6 6,-0 12,-0 12,-0 73,-0 73,-0 79,-0 85,-6 85,-12 85,-12 85,-24 85,-24 85,-30 79,-36 73,-36"/>
<text text-anchor="middle" x="42.5" y="-15.5" font-family="sans" font-size="10.00">samtools_sort</text>
</g>
<!-- 0&#45;&gt;3 -->
<g id="edge2" class="edge"><title>0&#45;&gt;3</title>
<path fill="none" stroke="grey" stroke-width="2" d="M42.5,-71.6966C42.5,-63.9827 42.5,-54.7125 42.5,-46.1124"/>
<polygon fill="grey" stroke="grey" stroke-width="2" points="46.0001,-46.1043 42.5,-36.1043 39.0001,-46.1044 46.0001,-46.1043"/>
</g>
<!-- 1 -->
<g id="node2" class="node"><title>1</title>
<path fill="none" stroke="#59d856" stroke-width="2" stroke-dasharray="5,2" d="M166,-108C166,-108 125,-108 125,-108 119,-108 113,-102 113,-96 113,-96 113,-84 113,-84 113,-78 119,-72 125,-72 125,-72 166,-72 166,-72 172,-72 178,-78 178,-84 178,-84 178,-96 178,-96 178,-102 172,-108 166,-108"/>
<text text-anchor="middle" x="145.5" y="-93" font-family="sans" font-size="10.00">bwa_map</text>
<text text-anchor="middle" x="145.5" y="-82" font-family="sans" font-size="10.00">sample: A</text>
</g>
<!-- 4 -->
<g id="node5" class="node"><title>4</title>
<path fill="none" stroke="#d85656" stroke-width="2" stroke-dasharray="5,2" d="M176,-36C176,-36 115,-36 115,-36 109,-36 103,-30 103,-24 103,-24 103,-12 103,-12 103,-6 109,-0 115,-0 115,-0 176,-0 176,-0 182,-0 188,-6 188,-12 188,-12 188,-24 188,-24 188,-30 182,-36 176,-36"/>
<text text-anchor="middle" x="145.5" y="-15.5" font-family="sans" font-size="10.00">samtools_sort</text>
</g>
<!-- 1&#45;&gt;4 -->
<g id="edge3" class="edge"><title>1&#45;&gt;4</title>
<path fill="none" stroke="grey" stroke-width="2" d="M145.5,-71.6966C145.5,-63.9827 145.5,-54.7125 145.5,-46.1124"/>
<polygon fill="grey" stroke="grey" stroke-width="2" points="149,-46.1043 145.5,-36.1043 142,-46.1044 149,-46.1043"/>
</g>
<!-- 2 -->
<g id="node3" class="node"><title>2</title>
<path fill="none" stroke="#d85656" stroke-width="2" stroke-dasharray="5,2" d="M279,-36C279,-36 218,-36 218,-36 212,-36 206,-30 206,-24 206,-24 206,-12 206,-12 206,-6 212,-0 218,-0 218,-0 279,-0 279,-0 285,-0 291,-6 291,-12 291,-12 291,-24 291,-24 291,-30 285,-36 279,-36"/>
<text text-anchor="middle" x="248.5" y="-15.5" font-family="sans" font-size="10.00">samtools_sort</text>
</g>
<!-- 5 -->
<g id="node6" class="node"><title>5</title>
<path fill="none" stroke="#59d856" stroke-width="2" stroke-dasharray="5,2" d="M269,-108C269,-108 228,-108 228,-108 222,-108 216,-102 216,-96 216,-96 216,-84 216,-84 216,-78 222,-72 228,-72 228,-72 269,-72 269,-72 275,-72 281,-78 281,-84 281,-84 281,-96 281,-96 281,-102 275,-108 269,-108"/>
<text text-anchor="middle" x="248.5" y="-93" font-family="sans" font-size="10.00">bwa_map</text>
<text text-anchor="middle" x="248.5" y="-82" font-family="sans" font-size="10.00">sample: B</text>
</g>
<!-- 5&#45;&gt;2 -->
<g id="edge1" class="edge"><title>5&#45;&gt;2</title>
<path fill="none" stroke="grey" stroke-width="2" d="M248.5,-71.6966C248.5,-63.9827 248.5,-54.7125 248.5,-46.1124"/>
<polygon fill="grey" stroke="grey" stroke-width="2" points="252,-46.1043 248.5,-36.1043 245,-46.1044 252,-46.1043"/>
</g>
</g>
</svg>
